<svg width="77" height="86" viewBox="0 0 77 86" fill="none" xmlns="http://www.w3.org/2000/svg">
<g filter="url(#filter0_d_234_59)">
<path d="M74.9459 40.8479C75.6104 41.2277 75.6194 42.1826 74.9622 42.5748L65.0494 48.4907C64.5663 48.779 64.416 49.4089 64.717 49.8843L71.2482 60.2003C71.6679 60.8632 71.1956 61.7291 70.411 61.7352L59.4117 61.8207C58.8155 61.8253 58.3558 62.3474 58.4266 62.9394L59.9004 75.2604C59.9982 76.0776 59.1219 76.6564 58.4086 76.2458L48.8219 70.7269C48.2721 70.4104 47.5702 70.6794 47.3727 71.2823L43.6399 82.6778C43.3763 83.4826 42.2942 83.6158 41.8432 82.899L35.6388 73.0373C35.2958 72.492 34.5342 72.4086 34.0813 72.8667L26.1243 80.9139C25.5348 81.5101 24.5174 81.1597 24.42 80.3269L22.9959 68.1459C22.9242 67.5329 22.3198 67.1305 21.7266 67.3009L11.2065 70.3226C10.434 70.5444 9.72867 69.8106 9.98093 69.0476L13.8702 57.283C14.0511 56.7356 13.7329 56.149 13.1754 56.0022L2.32955 53.1452C1.58445 52.9489 1.33191 52.0192 1.8753 51.4729L10.2704 43.0333C10.6636 42.638 10.6576 41.9975 10.257 41.6096L1.70418 33.3299C1.15059 32.7939 1.38556 31.8596 2.12682 31.6493L12.9169 28.5883C13.4715 28.431 13.7786 27.8384 13.5873 27.2945L9.4769 15.6055C9.21031 14.8473 9.90168 14.1003 10.6782 14.3076L21.2534 17.1303C21.8497 17.2895 22.4464 16.8758 22.5065 16.2615L23.7007 4.05584C23.7823 3.22137 24.7929 2.85183 25.3936 3.43682L33.501 11.3325C33.9625 11.7819 34.7223 11.6842 35.055 11.1326L41.0723 1.15554C41.5096 0.430346 42.5941 0.543153 42.8729 1.34283L46.8199 12.6659C47.0287 13.265 47.7355 13.5207 48.2793 13.1938L57.7602 7.49517C58.4656 7.07114 59.3527 7.63333 59.2703 8.45228L58.0291 20.7988C57.9695 21.3921 58.439 21.9054 59.0352 21.8988L70.0342 21.7768C70.8187 21.7681 71.3072 22.6249 70.9001 23.2956L64.5646 33.733C64.2727 34.2139 64.4348 34.8409 64.9233 35.1201L74.9459 40.8479Z" fill="url(#paint0_linear_234_59)"/>
<path d="M74.8218 41.065C75.3202 41.3498 75.3269 42.066 74.834 42.3602L64.9213 48.276C64.3174 48.6364 64.1295 49.4238 64.5057 50.018L71.037 60.3341C71.3517 60.8312 70.9975 61.4807 70.4091 61.4852L59.4098 61.5707C58.6645 61.5765 58.0898 62.2291 58.1784 62.9691L59.6522 75.29C59.7255 75.903 59.0683 76.3371 58.5333 76.0291L48.9467 70.5103C48.2593 70.1146 47.382 70.4508 47.1351 71.2045L43.4024 82.6C43.2047 83.2036 42.393 83.3035 42.0548 82.7659L35.8504 72.9041C35.4216 72.2226 34.4697 72.1183 33.9035 72.6909L25.9465 80.7381C25.5044 81.1852 24.7413 80.9224 24.6683 80.2978L23.2442 68.1169C23.1546 67.3506 22.3991 66.8476 21.6575 67.0606L11.1374 70.0823C10.5581 70.2487 10.0291 69.6983 10.2183 69.126L14.1075 57.3615C14.3337 56.6773 13.936 55.944 13.2391 55.7604L2.39322 52.9034C1.83441 52.7562 1.645 52.0589 2.05255 51.6492L10.4477 43.2096C10.9392 42.7155 10.9317 41.9148 10.4309 41.43L1.87807 33.1502C1.46288 32.7483 1.6391 32.0476 2.19504 31.8899L12.9851 28.8288C13.6784 28.6321 14.0622 27.8915 13.8232 27.2116L9.71275 15.5225C9.5128 14.9539 10.0313 14.3937 10.6137 14.5491L21.1889 17.3719C21.9343 17.5708 22.6802 17.0537 22.7554 16.2859L23.9495 4.08019C24.0107 3.45433 24.7687 3.17717 25.2192 3.61592L33.3265 11.5116C33.9034 12.0734 34.8532 11.9512 35.269 11.2617L41.2864 1.28465C41.6144 0.740758 42.4277 0.825363 42.6368 1.42512L46.5838 12.7482C46.8449 13.4971 47.7284 13.8167 48.4081 13.4081L57.889 7.70944C58.4181 7.39142 59.0833 7.81306 59.0216 8.42727L57.7804 20.7738C57.7058 21.5154 58.2927 22.157 59.038 22.1488L70.037 22.0268C70.6254 22.0202 70.9917 22.6629 70.6864 23.1659L64.3509 33.6033C63.986 34.2044 64.1887 34.9882 64.7992 35.3371L74.8218 41.065Z" stroke="#9B5A0D" stroke-width="0.5"/>
</g>
<defs>
<filter id="filter0_d_234_59" x="0.39917" y="0.671814" width="76.0505" height="85.1949" filterUnits="userSpaceOnUse" color-interpolation-filters="sRGB">
<feFlood flood-opacity="0" result="BackgroundImageFix"/>
<feColorMatrix in="SourceAlpha" type="matrix" values="0 0 0 0 0 0 0 0 0 0 0 0 0 0 0 0 0 0 127 0" result="hardAlpha"/>
<feOffset dy="1.5"/>
<feGaussianBlur stdDeviation="0.5"/>
<feComposite in2="hardAlpha" operator="out"/>
<feColorMatrix type="matrix" values="0 0 0 0 0 0 0 0 0 0 0 0 0 0 0 0 0 0 0.25 0"/>
<feBlend mode="normal" in2="BackgroundImageFix" result="effect1_dropShadow_234_59"/>
<feBlend mode="normal" in="SourceGraphic" in2="effect1_dropShadow_234_59" result="shape"/>
</filter>
<linearGradient id="paint0_linear_234_59" x1="76.4324" y1="41.6974" x2="-0.564199" y2="42.4236" gradientUnits="userSpaceOnUse">
<stop stop-color="#FFEB41"/>
<stop offset="1" stop-color="#DDA437"/>
</linearGradient>
</defs>
</svg>
